<?xml version="1.0" standalone="no"?>
<!DOCTYPE svg PUBLIC "-//W3C//DTD SVG 20010904//EN"
 "http://www.w3.org/TR/2001/REC-SVG-20010904/DTD/svg10.dtd">
<svg version="1.0" xmlns="http://www.w3.org/2000/svg"
 width="900.000000pt" height="900.000000pt" viewBox="0 0 900.000000 900.000000"
 preserveAspectRatio="xMidYMid meet">
<metadata>
Created by potrace 1.10, written by Peter Selinger 2001-2011
</metadata>
<g transform="translate(0.000000,900.000000) scale(0.100000,-0.100000)"
fill="#daa520" stroke="none">
<path d="M3608 7433 c-13 -7 -33 -12 -44 -13 -40 0 -122 -54 -161 -105 -109
-143 -96 -311 33 -439 23 -23 47 -52 54 -65 7 -14 14 -79 16 -155 2 -72 4
-140 4 -151 1 -11 0 -166 -1 -345 -2 -242 1 -335 10 -363 8 -24 10 -42 4 -48
-12 -12 -191 -20 -198 -9 -3 5 -1 11 5 15 28 17 -44 147 -122 221 -64 60 -134
138 -148 163 -5 10 -22 22 -36 25 -28 7 -134 107 -134 126 0 5 -6 10 -14 10
-13 0 -55 36 -87 76 -8 10 -49 48 -89 84 -40 36 -81 74 -89 84 -9 11 -40 45
-68 78 -29 32 -53 63 -54 70 0 7 -2 45 -4 83 -6 104 -34 174 -96 240 -44 46
-65 59 -117 75 -117 36 -246 17 -323 -47 -96 -81 -135 -225 -96 -351 28 -88
105 -167 205 -212 60 -26 82 -31 120 -27 38 4 57 0 104 -24 32 -16 67 -42 80
-59 12 -16 26 -30 30 -30 5 0 59 -50 120 -111 62 -61 127 -122 145 -136 18
-14 35 -32 37 -41 3 -10 19 -23 36 -30 17 -8 35 -23 42 -35 6 -12 36 -44 66
-72 173 -157 172 -155 172 -178 0 -10 -20 -52 -45 -91 -25 -40 -45 -80 -45
-90 0 -9 -16 -48 -35 -86 -19 -38 -35 -80 -35 -93 0 -13 -9 -32 -20 -42 -12
-11 -20 -31 -20 -51 0 -18 -4 -36 -10 -39 -10 -6 -90 43 -90 55 0 5 -13 16
-29 27 -16 10 -46 32 -67 50 -109 90 -163 132 -199 156 -43 29 -122 88 -206
154 -30 23 -73 57 -97 75 -24 18 -57 45 -74 61 -17 15 -35 27 -40 27 -11 0
-121 83 -149 114 -26 27 -45 71 -54 127 -22 129 -141 240 -279 260 -54 7 -73
6 -96 -6 -16 -8 -40 -15 -53 -15 -13 0 -41 -13 -63 -30 -21 -16 -46 -30 -54
-30 -8 -1 -30 -33 -50 -73 -19 -40 -40 -80 -48 -89 -12 -15 -12 -29 2 -105 18
-97 60 -179 112 -219 83 -64 249 -103 299 -70 22 15 32 15 63 5 60 -19 129
-57 135 -74 4 -8 15 -15 27 -15 11 0 44 -21 74 -47 30 -27 73 -61 96 -78 43
-32 85 -65 126 -102 14 -13 27 -23 30 -23 8 0 65 -42 123 -90 30 -25 72 -56
92 -70 20 -14 70 -51 112 -82 83 -64 195 -128 221 -128 21 0 32 -28 17 -43 -6
-6 -11 -28 -11 -48 0 -21 -5 -41 -11 -44 -6 -4 -8 -13 -5 -21 3 -8 -4 -35 -14
-60 -19 -44 -21 -45 -52 -39 -59 12 -66 15 -93 50 -14 19 -32 35 -40 35 -7 0
-23 14 -35 30 -12 17 -26 30 -31 30 -11 0 -102 63 -127 88 -10 10 -51 40 -91
67 -40 27 -76 56 -81 66 -5 9 -21 20 -35 23 -14 4 -42 21 -63 39 -49 42 -99
77 -111 77 -5 0 -19 12 -31 27 -20 26 -123 72 -160 73 -8 0 -44 31 -80 68
-121 126 -215 166 -330 142 -34 -7 -64 -19 -67 -27 -3 -7 -16 -13 -29 -13 -32
0 -102 -72 -140 -142 -24 -46 -28 -66 -30 -143 -2 -83 0 -93 26 -135 15 -25
31 -55 34 -67 5 -14 35 -38 84 -65 159 -89 245 -89 376 0 123 84 103 81 182
33 93 -57 150 -97 215 -152 30 -26 64 -51 76 -58 34 -17 155 -107 183 -136 14
-14 30 -25 36 -25 6 0 21 -11 34 -25 13 -14 28 -25 34 -25 6 0 29 -12 51 -27
49 -34 92 -58 126 -73 45 -19 46 -97 3 -123 -8 -5 -14 -25 -14 -46 0 -25 -5
-41 -15 -45 -8 -3 -15 -15 -15 -26 0 -11 -3 -20 -8 -20 -8 0 -32 -70 -32 -94
0 -7 -8 -24 -18 -36 l-18 -22 -39 23 c-39 23 -42 24 -407 26 -413 2 -412 2
-470 76 -31 38 -114 87 -150 87 -10 0 -26 9 -36 20 -15 16 -24 18 -49 11 -17
-5 -34 -7 -37 -4 -10 10 -140 -51 -183 -85 -64 -51 -123 -165 -123 -237 0 -32
19 -98 44 -155 23 -53 111 -140 141 -140 8 0 31 -9 52 -20 48 -24 139 -29 179
-8 16 9 47 23 68 32 22 10 63 37 91 62 29 24 60 44 69 44 10 0 26 5 36 10 11
6 101 10 217 9 109 0 257 0 329 1 118 1 132 -1 148 -19 13 -15 17 -28 12 -48
-4 -15 -12 -50 -17 -78 -6 -27 -15 -55 -20 -61 -5 -6 -18 -44 -28 -83 -10 -39
-23 -77 -29 -84 -12 -16 -54 -135 -58 -165 -3 -25 -30 -72 -42 -72 -5 0 -12 4
-18 10 -18 18 -135 50 -152 41 -10 -5 -39 -5 -67 -1 -27 4 -53 6 -57 4 -3 -2
-92 -5 -198 -5 -215 -1 -198 -6 -302 87 -85 76 -145 103 -234 105 -53 1 -78
-3 -95 -15 -13 -9 -31 -16 -40 -16 -9 0 -27 -11 -40 -24 -13 -13 -33 -26 -44
-30 -11 -3 -28 -23 -38 -44 -10 -20 -28 -55 -40 -77 -14 -26 -23 -63 -25 -106
-4 -60 -1 -73 32 -140 49 -99 102 -147 200 -178 74 -23 76 -23 157 -7 69 14
88 22 118 52 20 19 59 50 86 69 49 34 53 35 155 36 248 3 444 -3 462 -12 15
-8 23 -7 34 8 15 20 17 13 14 -47 -2 -39 -31 -114 -49 -124 -6 -4 -11 -19 -11
-34 0 -26 -56 -197 -78 -238 -6 -10 -20 -47 -32 -82 -13 -34 -26 -65 -31 -67
-4 -3 -11 -27 -15 -53 -4 -26 -13 -56 -20 -67 -8 -11 -14 -30 -14 -44 0 -13
-11 -47 -24 -75 -13 -28 -32 -76 -41 -106 -9 -30 -22 -68 -29 -85 -26 -59 -66
-171 -66 -185 -1 -8 -9 -33 -20 -55 -28 -57 -25 -80 16 -125 40 -44 82 -60
154 -59 25 1 185 -1 355 -3 171 -3 340 -1 377 2 66 7 69 9 115 60 27 30 53 71
60 94 6 23 24 73 38 111 15 39 33 91 41 117 8 25 22 52 30 58 7 7 14 25 14 40
0 15 14 61 30 101 17 41 33 91 36 112 4 21 17 54 30 73 13 19 24 41 24 48 0
28 59 39 223 41 89 2 169 3 177 4 8 1 196 0 416 -1 l401 -3 46 -50 c26 -27 46
-57 47 -65 0 -8 11 -37 25 -65 13 -27 25 -60 25 -72 0 -12 4 -24 9 -27 10 -7
41 -97 41 -123 0 -10 7 -27 15 -37 8 -11 15 -30 15 -42 0 -12 7 -24 15 -28 8
-3 15 -17 15 -31 0 -14 9 -44 19 -66 11 -22 18 -46 15 -53 -3 -7 9 -31 25 -53
17 -23 36 -57 44 -75 11 -27 24 -37 68 -52 50 -18 82 -20 459 -19 223 1 419 5
435 9 17 4 47 21 68 38 l39 31 -4 75 c-2 53 -10 87 -26 118 -12 23 -22 49 -22
56 0 7 -11 34 -25 59 -13 26 -27 70 -31 99 -4 29 -14 63 -22 75 -8 13 -18 41
-23 63 -5 21 -22 69 -39 105 -16 36 -30 71 -30 78 0 7 -9 37 -21 67 -11 30
-24 70 -29 88 -4 18 -15 43 -24 57 -9 13 -16 37 -16 53 0 16 -11 51 -25 78
-14 27 -25 57 -25 67 0 9 -4 17 -10 17 -5 0 -10 7 -10 16 0 18 -30 115 -40
129 -4 6 -10 28 -14 50 -4 22 -20 72 -35 110 -41 100 -52 135 -60 180 -4 22
-12 49 -19 60 -20 35 -40 89 -45 120 -5 28 -18 64 -107 305 -17 47 -36 101
-41 120 -6 19 -15 40 -21 47 -5 7 -7 17 -3 23 3 6 -3 25 -14 44 -12 18 -21 43
-21 54 0 11 -4 23 -9 26 -5 3 -15 30 -22 58 -6 29 -18 62 -25 73 -7 11 -20 51
-28 88 -9 38 -23 78 -31 90 -8 11 -21 45 -30 76 -9 31 -27 81 -39 111 -13 30
-31 78 -40 105 -36 102 -46 130 -56 147 -6 10 -10 24 -10 33 0 8 -8 34 -19 57
-17 41 -26 63 -75 205 -12 34 -25 65 -30 70 -14 14 -36 75 -30 84 3 5 -4 26
-14 47 -11 20 -27 62 -36 92 -9 30 -22 66 -29 80 -8 14 -22 53 -32 86 -28 94
-61 135 -130 163 -34 13 -93 26 -135 30 l-75 6 3 35 c2 19 4 235 6 480 1 245
5 451 9 457 4 6 4 18 1 27 -9 23 14 74 57 126 20 25 52 72 70 105 28 53 32 69
32 135 0 65 -4 83 -31 133 -48 89 -114 151 -182 172 -14 4 -32 13 -40 20 -19
16 -82 15 -112 -2z m124 -86 c41 -15 100 -64 138 -117 21 -30 25 -45 24 -115
0 -61 -5 -89 -20 -116 -35 -63 -74 -92 -137 -104 l-32 -6 3 -265 c3 -390 10
-785 14 -814 3 -24 0 -25 -57 -31 -80 -7 -88 -4 -80 38 3 18 8 261 10 538 3
277 6 510 7 516 2 7 -15 16 -39 21 -46 10 -97 52 -131 109 -33 55 -31 165 4
225 28 48 101 114 127 114 9 0 19 5 22 10 9 14 103 12 147 -3z m-1490 -334
c67 -22 129 -84 151 -151 23 -69 21 -103 -8 -158 -19 -35 -22 -51 -14 -65 5
-10 13 -19 18 -19 12 0 52 -37 381 -350 26 -25 94 -89 151 -143 57 -53 138
-129 179 -168 41 -39 103 -91 138 -117 91 -67 85 -75 -50 -64 l-87 7 -293 285
c-161 157 -344 335 -406 397 -101 101 -115 111 -136 103 -13 -5 -27 -13 -30
-18 -13 -22 -92 -23 -145 -2 -69 27 -115 71 -151 145 -33 68 -38 115 -15 159
8 15 15 34 15 41 0 22 100 115 123 115 12 0 29 5 37 10 23 15 86 12 142 -7z
m-727 -743 c3 -5 16 -10 29 -10 25 0 109 -56 131 -87 20 -29 45 -103 45 -136
0 -15 -7 -42 -16 -60 -11 -20 -13 -32 -6 -35 6 -2 30 -17 54 -33 24 -17 61
-42 83 -57 22 -15 51 -37 65 -50 14 -12 33 -25 43 -28 9 -3 17 -10 17 -15 0
-5 5 -9 11 -9 10 0 242 -174 289 -217 14 -13 28 -23 31 -23 5 0 16 -8 64 -48
6 -5 35 -26 65 -47 30 -21 57 -41 60 -45 11 -14 222 -170 231 -170 12 0 12
-55 0 -78 -5 -9 -14 -30 -20 -46 l-12 -29 -52 50 c-29 28 -92 81 -142 118 -49
38 -110 85 -134 107 -24 21 -48 38 -54 38 -5 0 -24 13 -41 30 -17 16 -125 100
-241 185 -284 210 -322 240 -343 268 -17 23 -37 22 -60 -4 -59 -62 -148 -75
-231 -34 -106 54 -182 196 -147 278 8 17 17 39 21 47 23 56 58 91 115 114 25
10 52 22 60 26 21 12 78 12 85 0z m2503 -635 c7 -14 12 -38 12 -53 0 -15 7
-40 15 -56 8 -15 15 -33 15 -40 0 -6 9 -28 20 -49 11 -20 20 -47 20 -60 0 -13
4 -27 9 -32 4 -6 16 -35 25 -65 10 -30 24 -68 31 -85 7 -16 23 -61 35 -100 12
-38 28 -84 36 -102 8 -17 14 -37 14 -45 0 -7 7 -22 15 -32 8 -11 15 -28 15
-38 0 -10 4 -26 10 -36 12 -21 40 -98 47 -132 3 -14 12 -34 19 -45 8 -11 14
-29 14 -40 0 -12 7 -30 15 -41 8 -10 15 -30 15 -44 0 -15 5 -31 11 -37 6 -6
14 -26 19 -44 12 -51 30 -99 74 -202 9 -21 16 -48 16 -60 0 -12 7 -31 15 -41
8 -11 15 -29 15 -40 0 -12 7 -30 15 -40 8 -11 15 -29 15 -41 0 -12 7 -30 15
-41 8 -10 15 -29 15 -41 0 -12 6 -34 14 -50 18 -37 37 -92 43 -125 3 -15 11
-33 19 -39 8 -6 14 -22 14 -35 0 -21 7 -41 45 -129 7 -16 16 -41 18 -55 5 -24
21 -74 38 -115 17 -41 41 -111 46 -135 3 -14 9 -29 13 -35 4 -5 18 -44 30 -85
13 -41 28 -80 33 -87 5 -7 13 -27 17 -45 11 -42 30 -97 43 -123 6 -11 14 -33
18 -50 8 -34 26 -86 46 -132 7 -17 13 -35 13 -41 0 -5 7 -23 15 -38 8 -16 15
-41 15 -56 0 -15 4 -29 9 -33 5 -3 12 -19 16 -36 4 -17 13 -42 21 -57 8 -15
14 -34 14 -42 0 -8 7 -24 15 -34 8 -11 15 -28 15 -38 0 -9 6 -32 14 -50 8 -18
22 -60 32 -93 10 -33 24 -69 31 -80 7 -11 13 -27 13 -36 0 -9 7 -30 15 -45 8
-16 15 -38 15 -49 0 -11 7 -29 15 -39 8 -11 15 -27 15 -37 0 -9 7 -30 15 -45
8 -16 15 -36 15 -44 0 -8 7 -24 15 -34 8 -11 15 -29 15 -40 0 -12 7 -30 15
-40 8 -11 15 -28 15 -38 0 -9 9 -22 21 -28 54 -29 9 -32 -461 -31 -261 1 -480
1 -486 1 -14 0 -34 44 -34 78 0 15 -7 36 -15 46 -8 11 -15 27 -15 37 0 9 -7
30 -15 45 -8 16 -15 39 -15 51 0 12 -4 25 -10 28 -5 3 -10 14 -10 23 0 10 -9
34 -20 55 -11 20 -20 45 -20 54 0 10 -7 27 -15 37 -8 11 -15 31 -15 45 0 14
-7 35 -15 45 -8 11 -15 27 -15 37 0 9 -7 30 -15 45 -8 16 -15 36 -15 44 0 9
-4 20 -9 25 -11 13 -41 109 -41 134 0 48 33 46 -668 43 -553 -3 -665 -1 -700
11 -23 8 -44 12 -46 8 -3 -4 -8 -35 -12 -69 -3 -34 -11 -65 -15 -68 -5 -3 -9
-15 -9 -28 0 -12 -7 -31 -15 -42 -8 -10 -15 -27 -15 -37 0 -11 -6 -31 -14 -45
-16 -33 -35 -85 -46 -131 -5 -18 -13 -38 -19 -44 -6 -6 -11 -20 -11 -32 0 -11
-6 -29 -14 -40 -7 -11 -16 -31 -19 -45 -7 -34 -35 -111 -47 -132 -6 -10 -10
-28 -10 -41 0 -13 -7 -32 -15 -43 -8 -10 -15 -33 -15 -51 0 -17 -4 -34 -9 -37
-12 -8 -940 -10 -948 -2 -3 3 0 12 6 20 20 24 51 89 51 107 0 9 7 22 15 29 8
7 15 23 15 35 0 12 7 28 15 35 8 7 15 21 15 31 0 18 18 66 46 122 8 16 14 39
14 51 0 12 7 31 15 42 8 10 15 26 15 34 0 8 7 28 15 44 8 15 15 38 15 51 0 12
7 28 15 35 8 7 15 22 15 34 0 12 7 31 15 42 8 10 15 28 15 40 0 11 7 29 15 40
8 10 15 26 15 34 0 17 43 127 54 137 3 3 6 13 6 22 0 9 7 29 15 45 8 15 15 36
15 45 0 9 7 29 15 45 8 15 15 35 15 43 0 8 6 27 14 41 26 52 46 103 46 120 0
10 7 27 15 38 8 10 15 26 15 34 0 8 7 28 15 44 8 15 15 32 15 36 0 5 5 21 12
37 23 58 47 128 48 141 0 15 21 67 46 115 8 16 14 36 14 46 0 9 7 26 15 37 8
10 15 28 15 39 0 11 6 32 14 47 8 15 17 40 21 57 4 17 11 33 16 36 5 4 9 16 9
28 0 12 6 34 14 49 8 15 17 40 21 57 4 17 11 33 16 36 5 4 9 16 9 29 0 12 7
31 15 42 8 10 15 25 15 32 0 8 6 28 13 45 18 42 36 93 49 137 5 19 14 39 19
45 5 5 9 18 9 30 0 11 6 29 14 40 7 11 16 31 19 45 7 32 35 111 46 130 5 9 12
30 15 48 4 17 12 34 17 37 5 4 9 13 9 22 0 8 6 29 14 46 8 18 25 64 37 102 12
39 26 74 31 80 4 5 8 18 8 28 0 10 6 31 14 45 8 15 24 56 36 92 12 36 26 74
30 85 5 11 12 35 15 53 4 17 11 32 16 32 5 0 9 8 9 18 1 9 9 35 20 57 11 22
19 49 20 61 0 11 4 24 8 30 11 12 46 106 67 179 10 33 24 67 31 76 8 8 14 27
14 42 0 14 5 29 10 32 6 3 10 19 10 35 0 58 -23 55 413 52 221 -2 434 1 472 6
39 5 77 10 86 11 9 0 21 -10 27 -24z m-2568 -172 c77 -48 124 -119 117 -175
-5 -35 -3 -38 16 -33 12 2 53 7 90 10 68 7 69 6 101 -27 18 -18 44 -40 56 -48
12 -8 147 -107 299 -220 152 -113 307 -225 344 -250 36 -25 67 -50 67 -56 0
-7 -7 -25 -15 -40 -8 -16 -15 -39 -15 -51 0 -33 -26 -29 -70 10 -73 63 -102
87 -109 87 -3 0 -26 18 -51 40 -25 22 -63 53 -85 68 -22 15 -51 37 -65 50 -14
12 -28 22 -33 22 -11 0 -197 142 -221 169 -11 11 -24 21 -29 21 -11 0 -127 87
-139 104 -10 14 -136 24 -148 12 -6 -6 -10 -18 -10 -28 0 -21 -67 -98 -85 -98
-7 0 -18 -7 -25 -15 -19 -22 -162 -21 -203 2 -38 21 -107 83 -107 97 0 5 -8
18 -17 28 -26 29 -23 190 3 220 77 85 117 117 152 121 60 7 155 -3 182 -20z
m-185 -1239 c74 -18 155 -108 155 -171 0 -25 2 -25 48 -20 57 8 851 12 858 5
2 -3 -10 -31 -28 -62 l-33 -58 -371 1 c-204 1 -394 5 -422 10 -49 8 -52 7 -52
-14 0 -48 -77 -145 -114 -145 -8 0 -19 -7 -26 -15 -9 -11 -32 -15 -81 -15 -75
0 -120 18 -178 69 -56 51 -71 90 -71 191 l0 91 66 64 c40 40 74 65 87 65 12 0
29 5 37 10 15 11 70 8 125 -6z m-134 -860 c8 -8 20 -14 25 -14 19 0 98 -106
89 -120 -3 -4 -2 -15 1 -24 5 -14 43 -16 333 -16 184 0 345 5 370 11 61 14 73
0 43 -51 -12 -21 -22 -46 -22 -54 0 -8 -8 -19 -17 -24 -10 -4 -163 -5 -341 -2
-178 3 -329 3 -337 0 -8 -3 -25 -26 -39 -51 -28 -53 -56 -89 -70 -89 -5 0 -18
-8 -28 -17 -28 -25 -193 -25 -234 1 -40 25 -104 97 -104 117 0 9 -7 22 -15 29
-22 19 -20 117 5 173 20 45 85 117 106 117 6 0 17 6 24 14 6 8 26 17 43 19 55
6 151 -4 168 -19z"/>
<path d="M3609 7233 c-37 -6 -69 -43 -80 -93 -8 -37 -6 -50 13 -88 20 -39 30
-48 71 -60 43 -14 51 -13 87 3 49 22 80 69 80 122 0 79 -78 131 -171 116z"/>
<path d="M2082 6883 c-16 -16 -35 -43 -42 -62 -36 -89 72 -197 162 -161 49 20
76 51 79 90 5 70 -1 96 -30 128 -27 29 -36 32 -85 32 -46 0 -59 -4 -84 -27z"/>
<path d="M1439 6153 c-15 -2 -39 -17 -54 -33 -25 -26 -28 -37 -28 -89 0 -51 4
-64 24 -84 40 -40 90 -53 138 -37 48 16 64 32 81 83 14 45 0 100 -35 133 -24
22 -80 34 -126 27z"/>
<path d="M3141 5460 c-6 -21 -11 -54 -11 -74 0 -20 -4 -36 -10 -36 -5 0 -10
-10 -10 -22 -1 -13 -9 -41 -20 -63 -11 -22 -19 -48 -20 -57 0 -9 -4 -20 -10
-23 -5 -3 -10 -16 -10 -28 0 -13 -6 -31 -14 -42 -7 -11 -16 -37 -20 -57 -4
-21 -10 -38 -14 -38 -4 0 -15 -28 -25 -63 -10 -34 -25 -77 -33 -95 -8 -18 -14
-41 -14 -51 0 -10 -7 -24 -15 -31 -8 -7 -15 -22 -15 -34 0 -11 -7 -34 -15 -50
-8 -15 -15 -36 -15 -45 0 -10 -7 -26 -15 -37 -8 -10 -15 -31 -15 -45 0 -14 -7
-34 -15 -45 -8 -10 -15 -26 -15 -34 0 -8 -7 -28 -15 -44 -8 -15 -15 -36 -15
-45 0 -10 -7 -26 -15 -37 -8 -10 -15 -28 -15 -39 0 -11 -7 -33 -15 -49 -8 -15
-15 -36 -15 -45 0 -10 -7 -26 -15 -37 -8 -10 -15 -28 -15 -40 0 -11 -7 -29
-15 -40 -8 -10 -15 -30 -15 -42 0 -13 -6 -36 -14 -50 -24 -47 -43 -96 -50
-129 -4 -18 -12 -35 -17 -38 -5 -4 -9 -14 -9 -23 0 -9 -7 -30 -15 -46 -8 -15
-15 -38 -15 -50 0 -12 -7 -31 -15 -42 -8 -10 -15 -28 -15 -40 0 -11 -7 -29
-15 -40 -8 -10 -15 -28 -15 -40 0 -11 -7 -29 -15 -40 -8 -10 -15 -28 -15 -40
0 -11 -7 -29 -15 -40 -8 -10 -15 -28 -15 -39 0 -11 -6 -29 -14 -40 -7 -11 -16
-33 -18 -50 -7 -36 -25 -89 -44 -128 -8 -16 -14 -33 -14 -39 0 -5 -7 -26 -16
-46 -9 -21 -22 -52 -30 -70 -8 -18 -14 -38 -14 -45 0 -7 -6 -24 -14 -39 -8
-15 -17 -40 -21 -57 -4 -17 -11 -33 -16 -36 -5 -4 -9 -16 -9 -29 0 -12 -7 -31
-15 -42 -8 -10 -15 -28 -15 -39 0 -11 -7 -33 -15 -49 -8 -15 -15 -35 -15 -42
0 -8 -9 -31 -20 -51 -11 -21 -20 -45 -20 -53 0 -9 -4 -20 -8 -26 -4 -5 -16
-36 -26 -69 -10 -33 -24 -73 -32 -88 -8 -16 -14 -36 -14 -46 0 -9 -7 -26 -15
-37 -8 -10 -15 -26 -15 -34 0 -8 -7 -28 -15 -44 -8 -15 -15 -38 -15 -50 0 -12
-7 -31 -15 -42 -8 -10 -15 -28 -15 -40 0 -11 -7 -29 -15 -40 -8 -10 -15 -28
-15 -40 0 -11 -7 -29 -15 -40 -8 -10 -15 -27 -15 -37 0 -26 -41 -98 -67 -120
-33 -27 -30 -51 5 -42 93 23 495 31 546 10 15 -7 17 -5 12 13 -4 11 -3 23 3
26 5 3 12 24 16 46 4 22 11 42 16 46 5 3 9 18 9 33 0 15 7 36 15 47 8 10 15
27 15 37 0 11 6 33 14 50 7 18 21 52 31 77 9 25 22 59 29 75 20 46 37 97 46
134 5 18 13 38 19 44 6 6 11 19 11 29 0 10 9 35 20 55 11 21 20 45 20 53 0 9
4 20 9 26 5 5 11 26 13 47 l3 38 821 2 822 2 16 -51 c9 -28 16 -60 16 -72 0
-11 5 -24 10 -27 6 -3 10 -15 10 -26 0 -10 9 -36 20 -56 11 -21 20 -47 20 -58
0 -11 7 -29 15 -39 8 -11 15 -28 15 -37 0 -10 6 -30 14 -46 28 -57 46 -104 46
-123 0 -10 5 -22 10 -25 6 -3 10 -14 10 -23 0 -14 23 -80 51 -147 23 -55 40
-120 36 -136 -4 -16 -1 -18 21 -11 46 12 511 6 554 -9 21 -7 40 -10 43 -7 7 7
-26 71 -42 81 -7 4 -13 18 -13 30 0 12 -9 36 -20 52 -11 17 -20 39 -20 50 0
12 -5 26 -11 32 -6 6 -14 26 -19 44 -9 38 -27 88 -47 136 -7 17 -13 38 -13 46
0 9 -4 18 -9 22 -5 3 -13 20 -16 38 -12 54 -38 131 -52 152 -7 11 -13 29 -13
40 0 11 -7 29 -15 39 -8 11 -15 27 -15 37 0 9 -7 30 -15 45 -8 16 -15 36 -15
45 0 9 -7 30 -15 45 -8 16 -15 38 -15 49 0 11 -7 29 -15 39 -8 11 -15 27 -15
37 0 9 -7 30 -15 45 -8 16 -15 36 -15 45 0 9 -7 30 -15 45 -8 16 -15 39 -15
52 0 12 -4 22 -9 22 -5 0 -13 15 -16 33 -4 17 -12 38 -18 45 -5 7 -13 29 -17
50 -11 50 -24 87 -74 204 -9 20 -16 44 -16 53 0 9 -5 26 -12 38 -6 12 -15 35
-19 52 -4 16 -17 55 -29 85 -12 30 -24 66 -27 80 -3 14 -12 34 -19 45 -8 11
-14 31 -14 46 0 15 -7 32 -15 39 -8 7 -15 24 -15 39 0 14 -7 35 -15 45 -8 11
-15 29 -15 40 0 12 -7 30 -15 40 -8 11 -15 31 -15 45 0 14 -7 35 -15 45 -8 11
-15 28 -15 38 0 10 -4 26 -10 36 -12 21 -40 98 -47 132 -3 14 -12 34 -19 45
-8 11 -14 31 -14 45 0 14 -7 34 -15 44 -8 11 -15 29 -15 41 0 12 -5 26 -11 32
-6 6 -14 26 -19 44 -11 46 -30 98 -46 131 -8 14 -14 37 -14 50 0 12 -7 32 -15
42 -8 11 -15 29 -15 40 0 12 -7 30 -15 40 -8 11 -15 32 -15 47 0 15 -4 31 -10
34 -5 3 -10 14 -10 23 -1 9 -9 35 -20 57 -11 22 -19 45 -20 51 0 7 -7 25 -15
40 -8 16 -15 39 -15 51 0 12 -4 25 -10 28 -5 3 -10 21 -10 39 0 19 -7 39 -15
46 -8 7 -15 20 -15 29 0 9 -6 25 -14 36 -16 23 -37 105 -39 155 -2 39 1 39
-107 22 -91 -13 -563 -4 -611 12 l-37 13 -11 -37z m666 -131 c26 -28 54 -67
61 -87 7 -20 17 -41 22 -46 6 -6 10 -19 10 -30 0 -24 16 -74 46 -147 13 -31
24 -65 24 -75 0 -11 7 -32 15 -48 8 -15 15 -37 15 -47 0 -10 4 -20 9 -23 9 -6
41 -91 67 -181 9 -33 27 -80 40 -105 12 -25 28 -70 34 -100 6 -30 20 -70 30
-88 11 -18 20 -44 20 -57 0 -14 9 -42 20 -64 12 -21 24 -56 27 -77 3 -22 11
-50 18 -64 7 -14 25 -61 40 -105 15 -44 31 -85 36 -90 4 -6 15 -42 25 -80 9
-39 25 -84 36 -101 22 -38 48 -119 48 -152 0 -13 9 -35 20 -49 11 -14 23 -41
26 -62 7 -34 23 -76 43 -111 5 -8 16 -42 26 -75 9 -33 26 -82 37 -110 10 -27
26 -72 35 -100 8 -27 23 -68 33 -90 18 -38 62 -160 90 -250 7 -22 18 -47 25
-55 7 -8 15 -36 17 -62 3 -26 15 -58 27 -74 11 -15 21 -33 21 -42 0 -8 11 -40
24 -71 13 -31 36 -96 51 -146 15 -49 40 -118 56 -152 16 -34 29 -70 29 -81 0
-11 8 -43 17 -72 l17 -52 -25 -19 c-21 -17 -39 -19 -154 -17 -173 4 -199 16
-232 108 -13 36 -23 71 -23 78 0 8 -9 25 -20 39 -11 14 -20 34 -20 44 0 10 -6
33 -14 51 -8 18 -20 47 -27 63 -7 17 -13 43 -15 59 -1 16 -11 49 -22 75 -28
64 -36 85 -33 95 6 25 -75 165 -120 207 l-49 46 -117 1 c-607 8 -1385 6 -1437
-5 -93 -19 -150 -83 -200 -228 -32 -91 -91 -245 -111 -290 -7 -16 -16 -47 -20
-67 -3 -21 -10 -38 -15 -38 -6 0 -10 -9 -10 -21 0 -27 -75 -171 -103 -196 -18
-17 -39 -22 -122 -25 -55 -3 -115 -1 -133 4 l-34 9 5 62 c2 34 14 87 26 117
13 30 30 75 38 100 14 43 22 66 59 163 9 23 25 59 36 79 10 21 17 42 14 46 -7
12 32 126 49 138 15 11 35 63 60 163 9 35 27 81 41 102 13 21 24 47 24 57 0
11 9 31 20 45 11 14 20 37 20 52 0 16 9 46 19 69 29 62 55 133 81 216 12 41
33 99 46 128 13 29 24 60 24 68 0 9 23 68 50 132 28 64 50 126 50 138 0 12 7
27 15 34 8 7 15 21 15 31 0 10 4 28 9 41 5 13 17 48 26 78 10 30 28 78 40 105
13 28 26 66 30 85 4 19 16 50 26 68 10 18 19 43 19 55 0 12 14 58 31 102 41
107 72 194 100 285 12 41 28 82 34 90 6 8 19 42 29 75 9 33 23 74 30 90 8 17
21 55 31 85 9 30 21 64 25 75 5 11 18 50 30 86 12 36 32 83 46 105 13 21 29
51 36 66 23 52 89 64 365 67 l172 1 48 -51z"/>
<path d="M3490 4982 c0 -5 9 -17 20 -27 12 -10 20 -31 20 -49 1 -17 7 -49 15
-71 8 -22 15 -51 15 -65 0 -14 7 -34 15 -44 8 -11 15 -29 15 -41 0 -12 5 -26
11 -32 6 -6 14 -26 19 -44 11 -46 30 -98 46 -131 8 -14 14 -34 14 -45 0 -10 7
-27 15 -37 8 -11 15 -29 15 -41 0 -12 4 -25 9 -31 5 -5 14 -25 19 -44 6 -19
20 -60 32 -90 12 -30 24 -66 27 -80 3 -14 12 -34 19 -45 8 -11 14 -29 14 -40
0 -11 7 -29 15 -39 8 -11 15 -29 15 -41 0 -12 7 -30 15 -41 8 -10 15 -30 15
-44 0 -14 7 -34 15 -44 8 -11 15 -29 15 -40 0 -12 7 -30 15 -40 8 -11 15 -29
15 -40 0 -12 7 -30 15 -40 8 -11 15 -29 15 -40 0 -12 7 -30 15 -40 8 -11 15
-27 15 -37 0 -9 7 -30 15 -45 8 -16 15 -39 15 -50 0 -12 7 -27 15 -34 8 -7 15
-22 15 -34 0 -12 7 -31 15 -42 8 -10 15 -29 15 -41 0 -19 14 -53 42 -103 4 -8
13 -26 18 -40 6 -14 15 -33 21 -43 6 -11 8 -22 4 -25 -3 -3 -51 -1 -108 5
-119 12 -1110 11 -1204 -1 -61 -8 -63 -8 -63 14 0 13 6 31 13 39 7 9 21 36 31
61 10 25 24 58 32 73 8 16 14 36 14 46 0 9 7 26 15 37 8 10 15 25 15 32 0 8 6
28 13 45 18 42 36 93 49 137 5 19 14 39 19 45 5 5 9 18 9 30 0 12 7 30 15 41
8 10 15 31 15 45 0 15 6 32 14 38 8 6 16 24 19 39 3 15 15 52 27 82 12 30 26
71 32 90 5 19 14 39 19 45 5 5 9 18 9 30 0 12 7 30 15 41 8 10 15 28 15 40 0
11 7 29 15 40 8 10 15 28 15 40 0 11 7 29 15 40 8 10 15 30 15 42 0 13 6 36
14 50 24 47 43 96 50 129 4 18 12 35 17 38 5 4 9 16 9 28 0 13 6 31 14 42 7
11 16 31 19 45 3 14 17 57 31 95 14 39 26 82 26 97 0 15 5 30 10 33 6 3 10 29
10 56 0 45 -2 49 -19 40 -21 -12 -91 -125 -91 -148 0 -8 -11 -36 -25 -62 -13
-25 -31 -73 -40 -105 -8 -33 -24 -69 -35 -81 -11 -12 -20 -34 -20 -51 0 -26
-50 -156 -116 -302 -13 -29 -24 -61 -24 -72 0 -11 -4 -28 -9 -38 -5 -9 -17
-42 -26 -72 -10 -30 -21 -60 -26 -65 -12 -16 -39 -98 -39 -121 0 -12 -6 -27
-13 -33 -8 -6 -19 -35 -26 -65 -7 -30 -23 -71 -37 -92 -14 -20 -29 -59 -35
-87 -5 -28 -16 -58 -24 -67 -8 -9 -15 -29 -15 -43 0 -15 -11 -55 -25 -90 -29
-69 -55 -180 -55 -232 0 -24 9 -43 34 -69 34 -34 42 -37 146 -51 85 -12 1051
-8 1135 4 144 21 186 80 147 207 -12 38 -24 85 -27 104 -3 20 -19 62 -35 93
-16 32 -33 77 -36 100 -4 23 -12 49 -19 57 -7 8 -27 58 -45 110 -17 52 -38
104 -45 115 -6 11 -15 38 -19 60 -3 22 -19 69 -36 105 -16 36 -40 101 -54 145
-13 44 -38 112 -55 152 -17 40 -31 85 -31 101 0 17 -6 32 -14 35 -7 3 -17 18
-20 33 -10 37 -92 251 -111 286 -7 15 -20 52 -26 81 -10 40 -27 72 -69 123
-51 62 -90 91 -90 66z"/>
<path d="M3476 4493 c-3 -10 -8 -51 -12 -91 -4 -40 -11 -75 -15 -78 -5 -3 -9
-17 -9 -32 0 -15 -7 -40 -15 -56 -8 -15 -15 -38 -15 -51 0 -12 -7 -28 -15 -35
-8 -7 -15 -22 -15 -34 0 -12 -7 -31 -15 -42 -8 -10 -15 -28 -15 -39 0 -11 -7
-33 -15 -49 -8 -15 -15 -36 -15 -45 0 -10 -7 -26 -15 -37 -8 -10 -15 -28 -15
-39 0 -11 -7 -29 -15 -39 -8 -11 -15 -29 -15 -41 0 -12 -7 -30 -15 -41 -8 -10
-15 -30 -15 -42 0 -13 -6 -36 -13 -50 -8 -15 -21 -42 -30 -60 -9 -19 -17 -41
-17 -50 0 -9 -7 -30 -15 -46 -8 -15 -15 -35 -15 -43 0 -8 -6 -27 -14 -41 -8
-15 -19 -38 -25 -52 -27 -58 -48 -92 -61 -100 -29 -18 -1 -20 65 -5 58 14 126
16 424 13 255 -3 364 -7 385 -16 28 -12 28 -12 21 15 -3 16 -13 35 -21 44 -8
8 -14 21 -14 27 0 7 -9 29 -20 49 -11 21 -20 45 -20 53 0 8 -7 24 -15 34 -8
11 -15 27 -15 37 0 9 -7 30 -15 45 -8 16 -15 37 -15 46 0 9 -6 29 -14 45 -26
51 -46 103 -46 117 0 8 -7 27 -15 42 -8 16 -15 38 -15 49 0 11 -7 29 -15 39
-8 11 -15 29 -15 40 0 12 -7 30 -15 40 -8 11 -15 30 -15 42 0 13 -4 25 -9 29
-5 3 -13 20 -17 38 -6 30 -11 43 -48 129 -9 20 -16 45 -16 55 0 10 -4 23 -8
29 -5 5 -15 43 -22 84 -12 67 -33 130 -45 130 -2 0 -6 -8 -9 -17z m48 -429 c9
-4 16 -18 16 -34 0 -15 7 -33 15 -40 8 -7 15 -23 15 -36 0 -12 4 -26 10 -29 5
-3 14 -25 20 -48 20 -81 34 -122 45 -137 7 -8 27 -62 45 -120 19 -58 40 -114
47 -125 17 -25 17 -99 0 -113 -19 -16 -462 -11 -478 5 -10 10 -10 24 -2 60 30
128 52 197 66 205 9 5 19 28 22 56 7 51 32 127 71 210 13 29 24 65 24 80 0 32
8 45 35 60 24 13 28 14 49 6z"/>
<path d="M1270 5353 c-47 -32 -59 -56 -59 -108 0 -53 13 -77 59 -106 60 -38
128 -27 177 30 27 31 32 111 8 135 -8 8 -15 19 -15 25 0 6 -6 11 -14 11 -7 0
-19 7 -26 15 -17 21 -99 20 -130 -2z"/>
<path d="M1114 4095 c-27 -18 -54 -74 -54 -110 0 -37 35 -92 70 -110 16 -8 47
-15 69 -15 33 0 47 7 81 38 37 36 40 43 40 93 0 49 -4 59 -33 87 -30 29 -39
32 -93 32 -36 0 -68 -6 -80 -15z"/>
<path d="M970 3254 c-41 -18 -57 -39 -65 -85 -15 -88 35 -151 120 -153 111 -3
164 129 86 211 -19 20 -33 26 -92 37 -9 2 -31 -3 -49 -10z"/>
<path d="M4995 7426 c-83 -24 -144 -75 -203 -171 -34 -56 -37 -65 -35 -131 2
-87 23 -142 82 -218 80 -102 77 -89 86 -326 4 -118 7 -222 6 -230 -7 -96 -7
-559 1 -608 10 -64 45 -122 73 -122 7 0 18 -6 24 -14 6 -8 26 -16 44 -19 40
-6 99 31 133 85 27 42 25 -8 23 588 -1 195 -1 399 0 453 l1 98 59 63 c32 35
62 74 66 87 4 13 18 41 32 62 32 47 38 141 10 162 -9 7 -17 21 -17 31 0 29
-50 108 -90 142 -67 57 -127 82 -194 81 -34 -1 -79 -7 -101 -13z m161 -71 c10
-8 25 -15 32 -15 7 0 35 -22 62 -50 28 -27 50 -55 50 -62 0 -7 7 -22 15 -32 9
-12 15 -42 15 -76 0 -34 -6 -64 -15 -76 -8 -10 -15 -26 -15 -36 0 -24 -97
-106 -134 -113 l-32 -6 3 -287 c2 -158 4 -434 6 -614 l3 -328 -68 0 c-37 0
-69 3 -71 8 -3 4 -1 45 4 92 4 47 9 319 9 605 l2 519 -24 9 c-71 28 -117 60
-118 83 0 6 -6 17 -13 23 -8 6 -20 36 -27 66 -27 111 30 220 145 282 48 26
141 31 171 8z"/>
<path d="M5038 7236 c-56 -25 -78 -55 -78 -110 0 -153 192 -186 240 -41 20 62
-13 119 -85 149 -43 18 -41 18 -77 2z"/>
<path d="M5724 7370 c-69 -26 -194 -134 -194 -168 0 -9 -8 -33 -19 -52 -16
-30 -17 -45 -9 -107 12 -99 21 -120 99 -213 25 -30 51 -71 57 -90 6 -19 13
-116 16 -215 8 -251 -9 -332 -90 -423 -13 -15 -33 -37 -44 -50 -11 -12 -20
-27 -20 -33 0 -13 -60 -95 -99 -134 -37 -38 -96 -140 -104 -180 -8 -43 26 -78
101 -104 69 -24 104 -26 134 -10 13 7 24 7 30 1 5 -5 8 -109 7 -253 -1 -134 0
-264 1 -289 2 -25 3 -56 3 -70 -1 -14 -1 -59 -2 -100 0 -41 0 -88 0 -105 -1
-42 1 -429 2 -675 1 -113 1 -288 1 -390 -1 -102 1 -502 4 -890 2 -388 4 -736
4 -775 0 -38 -1 -130 -1 -203 -1 -73 3 -142 9 -152 5 -10 10 -29 10 -42 0 -25
69 -100 103 -111 33 -12 799 -10 843 2 51 14 91 55 118 123 20 49 21 63 14
144 -5 49 -5 141 -2 204 4 63 7 165 7 225 0 266 -1 462 -1 489 -1 26 1 27 26
21 29 -7 62 -32 62 -48 0 -13 152 -157 166 -157 6 0 28 -12 49 -26 39 -26 84
-38 213 -55 64 -8 77 -13 105 -43 40 -42 141 -94 211 -107 124 -25 289 79 343
216 18 46 16 180 -2 195 -8 7 -15 21 -15 31 0 22 -21 71 -34 81 -5 3 -26 21
-46 38 -34 30 -109 64 -168 77 -13 3 -58 0 -100 -7 -80 -14 -132 -44 -190
-113 -54 -63 -149 -77 -208 -32 -18 14 -38 25 -44 25 -6 0 -15 11 -20 25 -5
14 -20 29 -33 34 -13 5 -36 26 -52 48 -33 45 -75 82 -92 83 -7 0 -17 8 -22 18
-5 9 -22 25 -38 34 -27 15 -32 16 -51 2 -27 -19 -28 -34 -3 -34 11 0 33 -18
50 -42 45 -62 263 -295 281 -301 8 -3 67 -7 130 -9 l114 -3 9 37 c9 39 80 128
102 128 7 0 18 7 25 15 18 22 192 22 210 0 7 -8 17 -15 22 -15 13 0 88 -75 88
-88 0 -5 7 -15 15 -22 22 -19 21 -155 -3 -200 -26 -52 -43 -72 -92 -110 -43
-34 -46 -35 -135 -34 -80 1 -95 4 -132 27 -42 26 -83 79 -97 124 -7 21 -11 22
-109 17 -56 -2 -118 -6 -139 -8 -35 -4 -42 2 -187 145 -150 148 -151 149 -151
194 0 41 -17 104 -41 148 -10 19 -25 224 -21 292 4 71 10 170 11 183 1 6 8 12
17 12 20 0 59 -31 224 -176 41 -36 86 -71 100 -77 14 -7 50 -29 80 -49 30 -20
66 -39 80 -42 14 -3 111 -10 215 -15 187 -10 190 -10 213 -36 24 -29 108 -95
119 -95 4 0 38 -12 75 -26 67 -25 69 -25 126 -10 127 34 150 46 187 96 19 26
42 51 50 54 8 3 15 14 15 24 0 10 7 34 17 52 14 29 15 46 6 119 -8 75 -14 93
-46 136 -71 100 -118 133 -215 154 -94 20 -127 15 -205 -31 -39 -22 -86 -56
-104 -74 -61 -61 -71 -65 -189 -64 -60 0 -120 0 -133 0 -31 0 -143 62 -190
106 -20 19 -57 54 -83 78 -26 25 -57 48 -68 51 -12 4 -35 23 -53 42 -38 43
-142 93 -192 93 -32 0 -35 3 -35 28 0 52 10 56 83 38 36 -9 82 -14 104 -11
127 18 215 7 229 -29 3 -8 18 -19 34 -26 16 -7 31 -18 34 -25 2 -7 33 -27 68
-43 67 -32 193 -50 226 -33 9 5 46 24 82 42 70 35 109 73 146 147 32 63 34
204 4 270 -10 23 -24 42 -30 42 -6 0 -17 15 -26 33 -13 28 -66 73 -99 86 -5 2
-18 11 -29 20 -14 12 -39 16 -115 15 -84 -1 -103 -5 -148 -28 -28 -15 -54 -33
-57 -41 -3 -8 -20 -21 -38 -31 -18 -9 -47 -30 -65 -46 l-31 -30 -150 -2 c-134
-1 -152 -3 -172 -21 -16 -15 -25 -17 -38 -9 -14 9 -18 33 -23 125 -4 63 -4
145 0 183 8 87 20 97 90 74 37 -12 77 -15 148 -12 164 7 462 1 565 -10 81 -9
102 -19 211 -97 35 -25 77 -49 93 -53 91 -22 113 -24 164 -15 30 6 67 19 81
29 15 11 39 22 53 26 14 3 34 21 45 40 11 19 25 34 30 34 31 0 77 162 68 237
-12 101 -83 212 -160 250 -122 60 -193 66 -292 24 -38 -16 -81 -41 -95 -54
-57 -55 -135 -97 -181 -98 -347 -3 -656 -8 -703 -13 -35 -3 -66 -12 -78 -23
-16 -14 -21 -15 -28 -3 -13 21 -19 129 -19 338 1 182 2 192 20 192 10 0 19 -5
19 -10 0 -19 83 2 149 37 35 18 88 56 117 82 97 88 208 104 259 37 36 -47 90
-82 165 -107 114 -37 232 -5 328 90 81 81 105 152 91 269 -17 137 -104 240
-234 277 -75 22 -206 13 -243 -16 -14 -10 -30 -19 -36 -19 -6 0 -27 -18 -47
-41 -41 -46 -131 -90 -194 -94 -55 -3 -82 -13 -128 -46 -22 -16 -46 -29 -53
-29 -12 0 -54 -35 -141 -117 -42 -41 -61 -41 -99 -2 -54 57 -98 73 -209 75
-140 2 -192 16 -152 41 7 4 19 24 27 43 7 19 19 42 26 50 7 8 25 42 41 75 16
33 45 88 66 121 20 34 37 66 37 71 0 6 8 21 19 34 10 13 36 58 58 99 42 78 90
119 141 120 52 0 180 111 222 193 44 83 24 278 -31 308 -11 5 -19 16 -19 24 0
25 -104 94 -164 110 -75 20 -104 21 -151 6 -106 -34 -161 -72 -210 -145 -48
-72 -71 -207 -45 -256 6 -10 10 -32 10 -49 0 -16 5 -33 11 -37 25 -15 -21
-137 -75 -202 -15 -16 -26 -35 -26 -41 0 -16 -47 -108 -59 -115 -5 -4 -15 -23
-22 -44 -6 -20 -21 -47 -32 -59 -11 -12 -25 -31 -31 -41 -6 -10 -21 -34 -33
-53 -13 -19 -23 -43 -23 -54 0 -11 -11 -47 -25 -80 -13 -33 -25 -70 -25 -82 0
-29 -33 -35 -173 -31 l-109 3 21 27 c12 14 21 36 21 47 0 12 4 21 9 21 14 0
111 125 111 143 0 8 14 32 31 53 66 83 64 71 64 390 0 264 2 294 18 311 9 11
17 27 17 37 0 9 17 35 39 59 41 45 90 132 101 183 8 35 -9 129 -35 188 -16 38
-99 125 -120 126 -10 0 -65 26 -94 44 -23 15 -135 12 -177 -4z m203 -83 c49
-26 114 -99 134 -153 23 -60 23 -75 -1 -144 -22 -67 -74 -122 -135 -145 l-44
-17 4 -340 c5 -365 6 -362 -48 -420 -14 -15 -46 -55 -72 -90 -27 -35 -53 -67
-60 -73 -6 -5 -50 -62 -98 -126 l-87 -116 -78 -6 c-42 -3 -81 -1 -86 4 -6 5
18 38 60 82 81 85 115 127 246 299 l97 128 2 327 1 327 -46 21 c-80 37 -146
134 -146 215 0 83 76 190 163 231 50 23 144 21 194 -4z m833 -352 c9 -8 21
-15 27 -15 13 0 63 -57 87 -99 26 -47 28 -181 3 -208 -9 -11 -17 -24 -17 -30
0 -14 -71 -83 -85 -83 -7 0 -18 -7 -26 -16 -9 -11 -30 -15 -78 -14 -36 1 -71
1 -77 1 -9 -1 -44 -63 -68 -121 -3 -8 -15 -28 -26 -45 -10 -16 -30 -52 -45
-80 -14 -27 -41 -77 -60 -110 -20 -33 -40 -69 -45 -80 -6 -11 -26 -47 -45 -80
-19 -33 -47 -86 -62 -117 l-27 -58 -53 -2 c-29 -1 -61 -2 -70 -2 -28 -2 -27
32 3 67 15 17 33 46 41 62 15 32 24 48 64 110 14 22 36 60 48 85 12 25 38 72
56 105 19 33 37 67 41 75 4 8 36 63 70 121 35 59 64 113 64 121 0 8 -16 32
-35 53 -26 30 -36 51 -41 92 -8 70 3 140 29 175 31 41 119 106 153 111 52 9
156 -2 174 -18z m846 -990 c10 -8 26 -15 34 -15 18 0 76 -59 105 -105 15 -23
19 -50 19 -115 1 -75 -2 -90 -26 -126 -34 -53 -90 -95 -156 -118 -51 -18 -56
-18 -115 -1 -80 22 -138 70 -170 138 l-24 53 -79 -1 c-84 -1 -117 -13 -166
-58 -15 -14 -55 -46 -90 -73 -35 -26 -84 -69 -109 -97 -48 -51 -88 -62 -81
-22 2 11 7 48 11 82 3 34 11 66 16 71 6 5 75 58 154 117 l145 108 101 -6 102
-6 21 45 c27 55 80 114 102 114 9 0 25 7 36 15 26 20 143 20 170 0z m-996
-975 c-6 -794 -6 -2519 0 -3018 l3 -343 -461 0 -462 0 0 2018 c0 1110 0 2021
0 2026 0 4 208 6 463 5 l462 -3 -5 -685z m1372 -23 c27 -7 53 -18 60 -25 7 -7
17 -12 23 -12 17 0 75 -73 96 -121 35 -78 21 -157 -45 -242 -16 -21 -46 -50
-67 -63 -33 -21 -51 -24 -128 -24 -66 0 -92 4 -101 15 -7 8 -20 15 -28 15 -22
0 -81 68 -88 100 -3 14 -7 31 -10 38 -3 10 -96 13 -461 12 -252 0 -463 -1
-470 0 -16 0 -15 120 1 120 6 1 216 0 467 0 491 -1 469 -3 469 47 0 20 67 103
84 103 6 0 18 6 24 13 11 10 85 33 117 35 6 1 31 -5 57 -11z m-488 -652 c11
-8 26 -15 34 -15 25 0 99 -67 121 -110 27 -51 31 -199 6 -220 -8 -7 -15 -18
-15 -25 0 -16 -87 -95 -105 -95 -7 0 -18 -7 -25 -15 -16 -20 -122 -20 -158 -1
-15 8 -34 17 -42 20 -50 19 -85 57 -101 112 l-12 41 -221 -1 -221 -1 4 60 c2
33 7 62 11 65 4 3 68 2 141 -1 235 -12 279 -11 279 6 0 25 42 96 75 127 58 56
186 85 229 53z m-650 -580 c33 -34 81 -77 106 -96 25 -18 63 -50 85 -71 22
-20 65 -55 94 -78 30 -22 57 -44 60 -48 4 -4 19 -18 35 -30 28 -21 37 -22 237
-22 l209 0 21 47 c22 48 80 113 102 113 6 0 21 7 31 15 28 21 159 21 176 0 7
-8 19 -15 26 -15 7 0 38 -24 68 -54 39 -39 55 -64 61 -93 9 -54 9 -112 -1
-150 -10 -37 -79 -123 -98 -123 -8 0 -19 -6 -25 -13 -6 -8 -36 -20 -66 -27
-47 -11 -65 -11 -108 0 -61 15 -99 37 -125 71 -24 32 -52 88 -52 107 0 12 -10
13 -47 8 -73 -9 -410 -9 -426 1 -16 9 -102 79 -128 104 -9 9 -45 39 -80 66
-67 51 -97 76 -160 131 -20 17 -41 32 -47 32 -13 0 -44 55 -35 63 3 3 0 29 -7
57 -24 98 0 99 94 5z"/>
<path d="M5778 7177 c-9 -7 -25 -19 -37 -27 -49 -34 -51 -138 -3 -183 34 -31
64 -41 107 -33 65 13 112 84 99 151 -14 75 -114 130 -166 92z"/>
<path d="M6585 6820 c-34 -22 -65 -74 -65 -108 0 -36 28 -89 58 -108 15 -10
44 -17 68 -16 75 1 126 53 128 130 1 39 -3 47 -42 83 -51 45 -98 52 -147 19z"/>
<path d="M7449 5807 c-68 -51 -73 -120 -13 -184 32 -34 36 -35 91 -31 50 4 60
9 85 39 21 25 28 44 28 76 0 52 -19 85 -66 112 -49 29 -76 26 -125 -12z"/>
<path d="M5869 4275 c-1 -1961 -4 -2469 -13 -2488 -8 -16 -5 -17 20 -10 16 4
142 8 279 8 190 0 256 -3 273 -13 13 -8 26 -11 29 -8 3 3 -2 33 -11 68 -14 56
-16 248 -18 1848 l-3 1785 -278 0 -277 0 -1 -1190z m429 1067 c45 -40 50 -61
27 -105 -10 -20 -12 -35 -4 -54 5 -14 9 -44 9 -67 -3 -318 -5 -659 -3 -811 1
-104 4 -473 7 -820 3 -346 7 -822 9 -1056 3 -234 2 -443 -2 -464 -5 -31 -15
-44 -56 -72 -45 -31 -54 -34 -95 -27 -25 4 -79 6 -121 5 -123 -3 -113 -46
-117 523 -4 592 -5 460 2 1180 3 335 8 618 11 627 4 10 1 37 -5 59 -8 31 -8
45 1 56 7 9 8 24 3 41 -4 16 -6 32 -5 38 1 5 2 50 1 100 -1 49 -1 115 -1 145
0 30 0 69 0 85 -1 17 -1 39 -1 50 -1 11 3 119 7 240 6 164 5 226 -4 243 -9 17
-9 28 4 52 23 44 50 54 165 61 58 3 110 6 115 7 6 1 29 -15 53 -36z"/>
<path d="M7880 4822 c-47 -22 -90 -78 -90 -117 0 -27 38 -91 64 -108 39 -26
103 -22 142 8 62 48 64 149 3 194 -30 22 -95 35 -119 23z"/>
<path d="M7385 4172 c-52 -17 -75 -50 -82 -115 -5 -47 -2 -55 23 -82 60 -65
151 -63 202 4 33 43 33 99 -1 150 -31 46 -83 62 -142 43z"/>
<path d="M7853 3422 c-47 -26 -73 -64 -73 -109 0 -32 7 -48 38 -81 34 -37 44
-42 81 -42 64 0 103 23 124 72 29 66 11 118 -55 161 -34 21 -74 21 -115 -1z"/>
<path d="M4223 7021 c-64 -29 -92 -52 -128 -105 -45 -66 -55 -94 -61 -170 -4
-63 -2 -81 15 -115 12 -22 21 -47 21 -54 0 -8 25 -45 56 -83 65 -80 99 -147
85 -172 -5 -10 -6 -35 -2 -57 4 -22 5 -146 4 -275 -4 -273 3 -315 53 -360 19
-16 46 -33 59 -36 63 -16 132 23 169 95 15 27 17 73 15 344 0 171 2 330 6 352
5 26 23 59 52 92 24 28 62 82 84 118 38 64 40 69 36 133 -11 156 -105 292
-202 292 -12 0 -28 7 -35 15 -22 26 -158 17 -227 -14z m233 -62 c47 -22 124
-94 124 -114 0 -7 7 -18 15 -25 11 -9 15 -33 15 -90 0 -57 -4 -81 -15 -90 -8
-7 -15 -18 -15 -25 0 -7 -23 -34 -51 -59 -37 -33 -60 -46 -82 -46 l-30 0 7
-425 6 -425 -68 0 -68 0 3 183 c2 100 4 288 6 419 l3 236 -39 6 c-49 8 -131
88 -142 138 -14 67 -17 140 -6 151 6 6 11 21 11 33 0 27 73 99 132 130 57 30
136 31 194 3z"/>
<path d="M4318 6852 c-49 -23 -78 -58 -79 -96 -2 -70 3 -92 32 -121 26 -26 36
-30 89 -30 50 0 63 4 82 25 69 74 62 151 -20 208 -42 30 -64 33 -104 14z"/>
<path d="M7525 2744 c-51 -26 -68 -53 -73 -111 -5 -53 -4 -56 34 -88 70 -61
145 -55 191 14 28 41 30 106 5 138 -19 24 -89 63 -112 63 -8 0 -28 -7 -45 -16z"/>
</g>
</svg>
