<?xml version="1.0" standalone="no"?>
<!DOCTYPE svg PUBLIC "-//W3C//DTD SVG 20010904//EN"
 "http://www.w3.org/TR/2001/REC-SVG-20010904/DTD/svg10.dtd">
<svg version="1.0" xmlns="http://www.w3.org/2000/svg"
 width="900.000000pt" height="291.000000pt" viewBox="0 0 900.000000 291.000000"
 preserveAspectRatio="xMidYMid meet">
<metadata>
Created by potrace 1.10, written by Peter Selinger 2001-2011
</metadata>
<g transform="translate(0.000000,291.000000) scale(0.100000,-0.100000)"
fill="#daa520" stroke="none">
<path d="M1519 2415 c-62 -44 -134 -85 -152 -85 -24 0 -67 -29 -67 -45 0 -7 8
-15 18 -18 71 -22 156 -60 192 -86 24 -17 48 -31 54 -31 16 0 69 -28 138 -73
31 -20 60 -37 63 -37 18 0 104 -46 133 -71 18 -16 43 -29 56 -29 13 0 49 -17
81 -37 l57 -38 -5 -98 c-6 -119 0 -125 76 -74 28 19 66 38 83 42 17 3 46 18
64 34 l33 27 2 102 c2 110 -3 123 -56 136 -15 3 -48 21 -75 39 -27 18 -85 50
-129 71 -44 22 -84 45 -90 51 -5 7 -32 20 -60 30 -27 10 -52 21 -55 25 -3 4
-18 14 -35 23 -16 8 -41 25 -54 36 -13 12 -33 21 -45 21 -12 0 -36 10 -55 23
-19 12 -42 27 -50 32 -9 6 -31 20 -48 33 -17 12 -33 22 -36 22 -2 0 -19 -11
-38 -25z m96 -155 c3 -5 14 -10 24 -10 10 0 26 -9 36 -20 10 -11 31 -20 48
-20 16 0 49 -13 74 -30 24 -16 49 -30 56 -30 7 0 28 -11 47 -23 65 -44 152
-89 201 -103 32 -10 56 -25 71 -45 12 -16 28 -27 35 -24 20 7 37 -44 24 -71
-15 -35 -47 -20 -123 56 -44 44 -90 79 -132 100 -36 17 -66 36 -69 43 -2 6
-18 12 -36 13 -19 1 -40 11 -54 26 -13 14 -40 28 -60 32 -22 4 -45 18 -61 36
-13 17 -33 30 -43 30 -24 1 -85 50 -61 50 9 0 20 -4 23 -10z"/>
<path d="M1283 2197 c-4 -7 -6 -136 -3 -287 l5 -275 45 -15 c25 -9 73 -34 108
-58 103 -69 97 -83 96 225 l-2 268 -43 32 c-24 17 -51 32 -60 32 -9 1 -44 21
-77 45 -43 32 -63 41 -69 33z m160 -255 c3 -31 6 -66 6 -77 0 -11 0 -31 0 -45
0 -111 -4 -135 -25 -138 -19 -3 -23 3 -29 40 -14 93 -14 241 2 264 23 36 41
19 46 -44z"/>
<path d="M2655 2140 c-4 -6 -8 -110 -9 -231 -2 -206 -1 -221 16 -230 10 -6 28
-7 40 -3 20 6 21 11 15 105 -6 107 -2 139 18 139 12 0 71 -161 77 -210 2 -20
9 -26 35 -28 45 -4 53 16 41 108 -6 49 -6 120 1 204 12 138 8 156 -33 156 -41
0 -46 -16 -39 -127 5 -92 4 -103 -11 -103 -19 0 -23 9 -63 135 -25 81 -31 90
-55 93 -14 2 -29 -2 -33 -8z"/>
<path d="M3986 2116 c-14 -14 -26 -29 -27 -33 0 -4 -1 -83 -2 -175 -2 -182 2
-197 58 -218 35 -13 108 -13 138 1 35 16 47 50 47 134 0 99 -3 105 -56 105
-44 0 -44 0 -44 -35 0 -19 4 -35 10 -35 17 0 31 -40 25 -70 -7 -33 -30 -44
-69 -34 l-27 6 3 147 3 146 40 0 c33 0 41 -4 43 -22 4 -29 27 -46 52 -38 16 5
20 15 20 54 0 74 -14 85 -109 89 -75 4 -81 2 -105 -22z"/>
<path d="M2971 2081 c-10 -7 -13 -50 -14 -195 0 -103 4 -191 9 -196 5 -5 51
-10 103 -11 101 -2 113 4 109 51 -3 24 -6 25 -68 26 -93 1 -90 0 -90 44 l0 40
55 0 c59 0 79 17 68 58 -5 19 -12 22 -65 22 l-59 0 3 43 3 42 69 0 c77 0 94
12 82 58 -6 27 -7 27 -99 27 -50 0 -98 -4 -106 -9z"/>
<path d="M3230 2066 c0 -14 20 -55 45 -92 25 -36 45 -77 45 -91 0 -14 -13 -42
-28 -62 -58 -74 -74 -109 -62 -131 6 -11 19 -20 28 -20 24 0 62 28 62 45 0 23
31 95 41 95 5 0 22 -26 38 -58 34 -68 52 -85 83 -80 35 5 35 41 -1 85 -16 21
-39 59 -51 85 l-21 48 31 62 c17 35 38 70 46 79 8 8 14 25 14 37 0 17 -6 22
-28 22 -33 0 -51 -18 -77 -77 -10 -24 -23 -43 -30 -43 -12 0 -42 59 -47 95 -3
16 -12 21 -46 23 -39 3 -42 1 -42 -22z"/>
<path d="M3552 2081 c-21 -13 -11 -65 13 -69 11 -1 31 -5 44 -8 l24 -5 -6
-155 -7 -155 26 -11 c18 -9 30 -9 42 -1 14 8 18 35 22 169 l5 159 30 5 c27 5
30 9 30 40 l0 35 -105 3 c-58 1 -111 -2 -118 -7z"/>
<path d="M4273 2082 c-14 -9 -20 -379 -6 -393 12 -12 203 -13 215 -1 5 5 8 22
6 38 -3 29 -3 29 -72 29 -76 0 -94 12 -82 58 6 24 11 26 64 29 l57 3 0 35 0
35 -57 3 c-53 3 -58 5 -64 29 -12 44 6 58 74 58 69 0 85 10 80 51 l-3 29 -100
3 c-55 1 -105 -1 -112 -6z"/>
<path d="M4554 2077 c-2 -7 -3 -97 -2 -201 3 -170 5 -190 21 -200 34 -21 46
14 40 118 -9 143 12 135 74 -27 10 -26 28 -60 40 -75 18 -22 25 -25 40 -16 16
10 18 29 18 210 l0 199 -31 3 c-42 4 -46 -10 -33 -108 6 -44 8 -88 5 -97 -11
-27 -54 23 -73 86 -24 77 -51 121 -74 121 -11 0 -22 -6 -25 -13z"/>
<path d="M1618 2013 c-2 -5 -2 -111 0 -236 l4 -229 46 -20 c26 -12 73 -38 105
-59 32 -22 67 -39 76 -39 18 0 124 -59 145 -80 6 -6 18 -10 28 -10 11 0 33 -7
49 -16 28 -14 30 -19 27 -62 -3 -44 -5 -47 -43 -62 -47 -18 -174 -110 -175
-126 0 -15 42 -26 54 -14 6 6 18 10 28 10 49 0 189 120 202 172 8 36 -12 82
-61 135 -27 29 -72 58 -155 98 -65 31 -122 63 -127 72 -5 10 -26 22 -48 28
-51 14 -72 58 -68 140 3 65 18 115 35 115 14 0 30 -44 30 -80 0 -38 27 -85 73
-128 20 -19 37 -41 37 -48 0 -8 12 -19 28 -25 33 -12 54 -22 204 -96 65 -32
120 -65 123 -73 13 -32 18 -206 7 -227 -12 -22 -132 -93 -157 -93 -8 0 -19 -9
-25 -20 -6 -11 -20 -20 -32 -20 -12 0 -29 -6 -37 -13 -34 -29 -151 -97 -167
-97 -9 0 -27 -9 -41 -20 -32 -25 -79 -27 -85 -2 -2 9 -4 60 -3 114 0 80 4 100
19 117 21 23 77 24 98 3 32 -32 53 8 65 126 6 59 5 62 -16 62 -13 0 -48 -20
-80 -45 -31 -25 -63 -45 -70 -45 -6 0 -30 -10 -51 -22 l-40 -23 1 -186 c0
-102 -2 -207 -6 -232 -7 -47 -7 -47 21 -47 17 0 39 11 59 29 16 17 68 50 115
74 47 24 112 58 144 75 33 18 64 32 70 32 6 0 25 11 41 25 28 23 57 39 188
100 88 41 88 40 89 216 1 85 -1 159 -5 166 -9 15 -145 93 -162 93 -19 0 -74
31 -104 58 -14 12 -37 25 -51 29 -34 9 -89 34 -123 57 -29 20 -29 20 -25 115
l3 95 -40 27 c-22 16 -53 31 -70 35 -16 3 -52 24 -79 45 -49 39 -62 45 -68 32z"/>
<path d="M806 1551 c-4 -5 -1 -42 5 -83 6 -40 9 -136 7 -213 -1 -81 1 -146 7
-155 10 -15 70 -60 80 -60 13 0 143 -67 179 -92 21 -16 44 -28 51 -28 13 0
121 -56 145 -75 8 -6 31 -18 50 -25 44 -16 106 -55 146 -92 21 -20 36 -26 48
-22 16 6 17 14 10 68 -10 68 -11 257 -4 480 l5 149 -67 36 c-36 20 -76 45 -88
55 -11 11 -37 25 -56 32 -30 10 -36 10 -42 -5 -9 -18 2 -356 13 -390 17 -55
63 19 74 122 10 85 15 97 41 97 14 0 22 -11 30 -41 6 -23 9 -47 6 -55 -3 -8
-1 -26 5 -41 5 -14 10 -85 9 -157 0 -166 -2 -188 -17 -193 -13 -5 -213 97
-252 128 -13 11 -30 19 -38 19 -7 0 -25 7 -39 17 -35 22 -80 47 -141 78 -29
14 -54 34 -57 43 -9 28 -6 124 6 175 12 49 38 65 38 23 0 -14 5 -28 10 -31 6
-3 10 -17 10 -30 0 -13 6 -37 12 -52 19 -42 98 -118 143 -138 22 -9 54 -24 71
-32 24 -12 35 -13 52 -4 23 12 30 31 12 31 -5 0 -18 7 -27 15 -68 59 -101 82
-137 95 l-41 16 0 103 0 104 -43 23 c-23 12 -56 34 -73 48 -17 14 -37 26 -46
26 -8 0 -26 9 -40 20 -28 22 -48 25 -57 11z"/>
<path d="M8162 1428 c-18 -18 -14 -46 9 -58 32 -18 51 -5 47 32 -3 36 -33 49
-56 26z"/>
<path d="M5247 1343 c-4 -3 -7 -107 -7 -230 l0 -223 41 0 41 0 -7 88 c-7 97 1
117 47 110 22 -3 23 -6 23 -98 l0 -95 41 -3 41 -3 -1 178 c-1 98 1 198 4 223
5 41 3 45 -23 54 -51 18 -62 1 -62 -100 l0 -89 -35 0 -35 0 3 89 c4 94 -1 106
-44 106 -11 0 -24 -3 -27 -7z"/>
<path d="M6518 1340 c-15 -9 -15 -15 -2 -57 40 -139 67 -256 73 -318 l6 -70
55 0 55 0 6 85 c3 47 10 96 16 110 11 27 31 102 43 165 5 22 11 50 15 62 6 18
2 23 -21 29 -40 10 -58 -7 -66 -62 -18 -135 -27 -183 -37 -202 -15 -28 -29
-28 -35 1 -16 82 -26 161 -26 199 0 24 -5 49 -12 56 -14 14 -47 15 -70 2z"/>
<path d="M6828 1333 c-5 -7 -8 -22 -6 -35 2 -18 11 -24 38 -28 l35 -5 -4 -187
-4 -188 47 0 46 0 0 189 0 190 33 3 c28 3 32 7 35 36 2 21 -1 32 -10 33 -78 7
-201 2 -210 -8z"/>
<path d="M7364 1337 c-2 -7 -3 -109 -2 -227 l3 -215 115 0 115 0 3 26 c5 44
-18 57 -91 52 -49 -4 -65 -2 -68 8 -2 8 -2 88 1 179 3 91 1 171 -4 178 -11 16
-65 16 -72 -1z"/>
<path d="M7635 1341 c-10 -9 -5 -60 7 -67 7 -5 24 -8 38 -8 l25 -1 0 -185 1
-185 42 -3 42 -3 0 190 0 190 26 3 c33 4 53 32 39 54 -8 12 -32 16 -113 18
-56 1 -105 0 -107 -3z"/>
<path d="M2664 1319 c-14 -16 -20 -40 -22 -99 -4 -87 7 -120 41 -120 12 0 45
-9 72 -19 48 -18 50 -21 53 -60 3 -36 0 -42 -23 -53 -34 -15 -58 -1 -65 38 -5
25 -9 29 -40 29 l-35 0 0 -52 c1 -78 19 -93 115 -93 104 0 110 7 110 129 0 86
-1 92 -22 100 -130 51 -123 46 -126 95 -3 37 1 47 17 56 29 15 60 -3 68 -40 7
-37 41 -50 60 -24 18 24 16 85 -3 112 -14 20 -24 22 -98 22 -72 0 -86 -3 -102
-21z"/>
<path d="M6228 1125 c-2 -118 -1 -220 0 -225 2 -6 24 -10 49 -10 l45 0 -4 73
-3 72 57 3 c53 3 58 5 78 38 19 30 21 46 18 128 -4 130 -10 136 -139 136 l-98
0 -3 -215z m152 136 c14 -28 12 -124 -3 -146 -10 -13 -21 -16 -40 -11 -26 6
-27 8 -27 85 0 54 4 81 13 84 26 11 47 6 57 -12z"/>
<path d="M7910 1115 l0 -225 99 0 c136 0 135 -2 139 228 4 169 3 175 -19 198
-21 22 -30 24 -121 24 l-98 0 0 -225z m135 149 c24 -24 18 -282 -7 -298 -13
-8 -23 -8 -35 0 -16 10 -18 30 -21 149 -3 137 3 165 34 165 7 0 20 -7 29 -16z"/>
<path d="M3227 1283 c-9 -9 -11 -37 -6 -105 4 -51 4 -133 -1 -183 -4 -49 -6
-93 -3 -97 6 -11 81 -10 88 1 3 6 2 35 -3 65 -5 30 -6 60 -2 66 4 7 28 10 60
8 41 -2 55 1 64 15 20 31 -4 52 -63 52 -56 1 -71 12 -71 53 0 13 5 32 11 44
10 18 17 19 70 13 56 -7 59 -6 70 18 8 17 8 30 1 43 -9 16 -24 19 -106 19 -64
0 -101 -4 -109 -12z"/>
<path d="M3498 1276 c-15 -28 7 -70 32 -63 11 3 23 0 27 -6 3 -6 5 -80 4 -164
l-2 -153 45 0 46 0 2 163 c3 154 4 162 23 160 10 -1 27 3 37 8 19 10 25 54 8
64 -6 4 -56 7 -111 8 -90 2 -102 0 -111 -17z"/>
<path d="M3772 1284 c-5 -10 -4 -46 4 -92 7 -43 18 -114 24 -159 19 -137 19
-138 71 -138 l44 0 7 88 c8 90 21 131 41 124 11 -3 45 -142 46 -190 1 -27 3
-28 49 -25 l47 3 7 55 c4 30 12 100 17 155 5 55 15 115 21 133 18 49 -13 76
-64 56 -13 -5 -16 -24 -16 -108 0 -55 -4 -107 -9 -114 -13 -21 -48 62 -56 132
-8 66 -22 96 -45 96 -27 0 -40 -22 -40 -69 -1 -54 -32 -173 -47 -178 -15 -5
-23 46 -23 141 0 50 -5 87 -12 94 -17 17 -55 15 -66 -4z"/>
<path d="M4298 1289 c-10 -5 -18 -18 -18 -28 0 -10 -7 -35 -15 -54 -8 -20 -15
-54 -15 -76 0 -22 -14 -83 -31 -136 -18 -52 -29 -98 -26 -101 10 -10 58 -7 69
4 6 6 13 25 17 44 7 32 8 33 55 32 53 -1 66 -12 66 -57 0 -26 2 -28 38 -25 26
2 36 7 35 18 -4 37 -52 248 -62 273 -6 16 -11 41 -11 57 0 47 -58 75 -102 49z
m61 -180 c23 -66 4 -102 -40 -79 -22 12 -23 21 -8 73 12 45 33 48 48 6z"/>
<path d="M4545 1290 c-17 -6 -18 -19 -17 -196 1 -104 2 -193 2 -197 0 -5 17
-7 38 -5 l37 3 0 60 c0 47 3 60 16 63 29 6 49 -26 49 -79 l0 -49 45 0 c50 0
57 13 30 60 -19 33 -19 78 0 96 11 11 15 38 15 102 0 126 -8 135 -145 145 -28
2 -59 1 -70 -3z m129 -86 c3 -9 6 -35 6 -59 0 -48 -17 -68 -52 -63 -20 3 -23
9 -26 57 -2 29 -1 60 2 67 7 19 62 18 70 -2z"/>
<path d="M4823 1287 c-3 -5 -5 -95 -6 -200 l-1 -192 114 -3 c84 -2 116 1 122
10 12 20 9 37 -11 57 -16 16 -25 17 -75 9 -75 -13 -88 -7 -84 39 l3 38 54 -3
c55 -4 71 5 71 39 0 34 -23 48 -67 40 -55 -11 -65 -3 -61 50 l3 44 77 -3 c77
-4 78 -4 88 24 19 48 -4 59 -121 59 -56 0 -103 -4 -106 -8z"/>
<path d="M5531 1286 c-9 -11 -11 -64 -9 -184 4 -212 4 -212 119 -212 111 0
110 -1 107 226 l-3 179 -24 3 c-13 2 -27 -2 -32 -10 -4 -7 -5 -78 -2 -157 6
-133 5 -145 -12 -157 -25 -19 -62 -18 -73 2 -5 9 -7 79 -4 155 4 103 2 142 -8
154 -16 19 -44 19 -59 1z"/>
<path d="M5814 1288 c-3 -4 -5 -94 -5 -200 l-1 -193 84 -3 c103 -4 122 1 136
33 17 36 15 116 -3 141 -12 19 -12 24 0 40 19 25 19 108 0 144 -9 16 -25 32
-38 34 -40 9 -168 12 -173 4z m150 -84 c10 -26 7 -69 -6 -82 -17 -17 -54 -15
-72 4 -15 14 -15 35 0 82 5 18 71 15 78 -4z m4 -177 c10 -53 -26 -89 -66 -68
-25 13 -37 58 -21 77 18 22 83 14 87 -9z"/>
<path d="M2955 1264 c-24 -26 -25 -31 -25 -180 0 -145 1 -154 22 -174 18 -17
35 -20 100 -20 76 0 78 1 93 30 21 41 22 288 0 329 -18 36 -32 41 -106 41 -52
0 -63 -4 -84 -26z m133 -61 c5 -10 10 -61 10 -113 1 -109 -10 -133 -55 -128
l-28 3 -3 114 c-1 63 0 121 2 128 8 20 64 16 74 -4z"/>
<path d="M7096 964 c-11 -30 -6 -72 10 -78 50 -19 84 15 65 67 -8 21 -17 27
-40 27 -17 0 -31 -6 -35 -16z"/>
<path d="M8196 958 c-9 -12 -16 -30 -16 -40 0 -40 82 -48 95 -9 3 10 1 30 -4
45 -13 33 -53 35 -75 4z"/>
</g>
</svg>
